
<svg version="1.0" xmlns="http://www.w3.org/2000/svg"
 width="48.000000pt" height="48.000000pt" viewBox="0 0 48.000000 48.000000"
 preserveAspectRatio="xMidYMid meet">

<g transform="translate(0.000000,48.000000) scale(0.100000,-0.100000)"
fill="white" stroke="none">
<path d="M160 471 c0 -5 -9 -11 -20 -13 -27 -4 -27 -22 0 -26 13 -2 20 2 20
12 0 13 14 16 80 16 66 0 80 -3 80 -16 0 -10 7 -14 23 -12 27 4 26 22 -3 26
-11 2 -20 8 -20 13 0 5 -36 9 -80 9 -44 0 -80 -4 -80 -9z"/>
<path d="M63 415 c-16 -18 -18 -255 -3 -255 6 0 10 -9 10 -20 0 -19 40 -70 55
-70 11 0 35 -28 35 -40 0 -6 10 -10 23 -8 27 4 28 22 1 27 -10 2 -26 12 -35
22 -9 11 -20 19 -23 19 -15 0 -36 29 -36 49 0 12 -4 21 -10 21 -6 0 -10 48
-10 125 0 118 1 125 20 125 11 0 20 5 20 10 0 15 -33 11 -47 -5z"/>
<path d="M370 420 c0 -5 9 -10 20 -10 19 0 20 -7 20 -125 0 -77 -4 -125 -10
-125 -5 0 -10 -9 -10 -21 0 -20 -21 -49 -36 -49 -3 0 -14 -8 -23 -19 -9 -10
-24 -20 -34 -22 -26 -6 -26 -23 1 -27 12 -2 22 2 22 8 0 12 24 40 35 40 15 0
55 51 55 70 0 11 5 20 10 20 17 0 13 239 -4 256 -17 16 -46 19 -46 4z"/>
<path d="M153 375 c-7 -8 -13 -19 -13 -25 0 -5 -7 -10 -15 -10 -12 0 -15 -17
-15 -90 0 -57 4 -90 11 -90 11 0 39 -25 39 -35 0 -20 34 -35 80 -35 46 0 80
15 80 35 0 10 28 35 39 35 7 0 11 33 11 90 0 73 -3 90 -15 90 -8 0 -15 5 -15
11 0 6 -6 17 -14 25 -20 19 -156 19 -173 -1z m173 -119 c22 -22 18 -89 -6
-106 -11 -8 -20 -20 -20 -27 0 -9 -18 -13 -60 -13 -42 0 -60 4 -60 13 0 7 -9
19 -20 27 -23 17 -28 82 -7 105 17 20 153 20 173 1z"/>
<path d="M160 205 c0 -14 5 -25 10 -25 6 0 10 11 10 25 0 14 -4 25 -10 25 -5
0 -10 -11 -10 -25z"/>
<path d="M300 205 c0 -14 5 -25 10 -25 6 0 10 11 10 25 0 14 -4 25 -10 25 -5
0 -10 -11 -10 -25z"/>
<path d="M210 150 c0 -5 14 -10 30 -10 17 0 30 5 30 10 0 6 -13 10 -30 10 -16
0 -30 -4 -30 -10z"/>
<path d="M210 10 c0 -5 14 -10 30 -10 17 0 30 5 30 10 0 6 -13 10 -30 10 -16
0 -30 -4 -30 -10z"/>
</g>
</svg>
