
<svg version="1.0" xmlns="http://www.w3.org/2000/svg"
 width="48.000000pt" height="48.000000pt" viewBox="0 0 48.000000 48.000000"
 preserveAspectRatio="xMidYMid meet">

<g transform="translate(0.000000,48.000000) scale(0.100000,-0.100000)"
fill="white" stroke="none">
<path d="M180 470 c0 -5 -9 -10 -20 -10 -11 0 -20 -7 -20 -15 0 -8 -9 -15 -20
-15 -27 0 -70 -43 -70 -70 0 -11 -7 -20 -15 -20 -8 0 -15 -9 -15 -20 0 -11 -4
-20 -10 -20 -6 0 -10 -27 -10 -60 0 -33 4 -60 10 -60 6 0 10 -9 10 -20 0 -11
7 -20 15 -20 9 0 15 -9 15 -25 0 -14 5 -25 10 -25 6 0 10 11 10 25 0 14 -4 25
-10 25 -5 0 -10 9 -10 20 0 11 -7 20 -15 20 -12 0 -15 13 -15 60 0 47 3 60 15
60 8 0 15 9 15 20 0 11 5 20 10 20 6 0 10 9 10 21 0 26 23 49 49 49 12 0 21 5
21 10 0 6 9 10 20 10 11 0 20 7 20 15 0 12 13 15 60 15 33 0 60 4 60 10 0 6
-27 10 -60 10 -33 0 -60 -4 -60 -10z"/>
<path d="M370 385 c0 -25 5 -45 10 -45 6 0 10 9 10 21 0 26 23 49 49 49 12 0
21 5 21 10 0 6 -20 10 -45 10 l-45 0 0 -45z"/>
<path d="M410 365 c0 -14 5 -25 10 -25 6 0 10 -9 10 -20 0 -11 7 -20 15 -20
12 0 15 -13 15 -60 0 -47 -3 -60 -15 -60 -8 0 -15 -9 -15 -20 0 -11 -4 -20
-10 -20 -5 0 -10 -9 -10 -21 0 -26 -23 -49 -49 -49 -12 0 -21 -4 -21 -10 0 -5
-9 -10 -20 -10 -11 0 -20 -7 -20 -15 0 -12 -13 -15 -60 -15 -33 0 -60 -4 -60
-10 0 -6 27 -10 60 -10 33 0 60 4 60 10 0 6 9 10 20 10 11 0 20 7 20 15 0 8 9
15 20 15 27 0 70 43 70 70 0 11 7 20 15 20 8 0 15 9 15 20 0 11 5 20 10 20 6
0 10 27 10 60 0 33 -4 60 -10 60 -5 0 -10 9 -10 20 0 11 -7 20 -15 20 -9 0
-15 9 -15 25 0 14 -4 25 -10 25 -5 0 -10 -11 -10 -25z"/>
<path d="M153 325 c-37 -37 -43 -50 -43 -85 0 -36 6 -48 44 -86 63 -63 109
-63 172 0 38 38 44 50 44 86 0 36 -6 48 -44 86 -39 39 -50 44 -88 43 -37 0
-49 -6 -85 -44z m97 6 c0 -5 -5 -11 -12 -13 -16 -6 22 -48 44 -48 11 0 18 -8
18 -20 0 -11 5 -20 10 -20 6 0 10 5 10 10 0 6 5 10 10 10 16 0 11 -60 -7 -78
-12 -12 -18 -13 -21 -4 -6 20 -66 15 -82 -8 -21 -29 -40 -25 -40 9 0 18 9 35
25 47 25 18 34 54 15 54 -5 0 -10 11 -10 25 0 16 -6 25 -15 25 -8 0 -15 5 -15
10 0 6 16 10 35 10 19 0 35 -4 35 -9z"/>
<path d="M90 119 c0 -26 -23 -49 -49 -49 -12 0 -21 -4 -21 -10 0 -5 20 -10 45
-10 l45 0 0 45 c0 25 -4 45 -10 45 -5 0 -10 -9 -10 -21z"/>
</g>
</svg>
