
<svg version="1.0" xmlns="http://www.w3.org/2000/svg"
 width="48.000000pt" height="48.000000pt" viewBox="0 0 48.000000 48.000000"
 preserveAspectRatio="xMidYMid meet">

<g transform="translate(0.000000,48.000000) scale(0.100000,-0.100000)"
fill="white" stroke="none">
<path d="M160 420 c0 -5 -9 -10 -20 -10 -22 0 -70 -41 -70 -60 0 -5 -4 -10
-10 -10 -5 0 -10 -9 -10 -20 0 -11 5 -20 10 -20 6 0 10 -27 10 -60 0 -33 -4
-60 -10 -60 -5 0 -10 -9 -10 -20 0 -11 5 -20 10 -20 6 0 10 -5 10 -10 0 -19
48 -60 70 -60 11 0 20 -4 20 -10 0 -6 33 -10 80 -10 47 0 80 4 80 10 0 6 9 10
20 10 22 0 70 41 70 60 0 5 5 10 10 10 6 0 10 9 10 20 0 11 7 20 15 20 12 0
15 13 15 60 0 47 -3 60 -15 60 -8 0 -15 9 -15 20 0 11 -4 20 -10 20 -5 0 -10
5 -10 10 0 19 -48 60 -70 60 -11 0 -20 5 -20 10 0 6 -33 10 -80 10 -47 0 -80
-4 -80 -10z m110 -20 c0 -5 9 -10 21 -10 22 0 49 -22 49 -39 0 -6 7 -11 15
-11 8 0 15 -9 15 -20 0 -11 5 -20 10 -20 6 0 10 -27 10 -60 0 -33 -4 -60 -10
-60 -5 0 -10 -9 -10 -20 0 -11 -7 -20 -15 -20 -8 0 -15 -5 -15 -11 0 -17 -27
-39 -49 -39 -12 0 -21 -4 -21 -10 0 -5 -25 -10 -55 -10 -30 0 -55 5 -55 10 0
6 -9 10 -21 10 -22 0 -49 22 -49 39 0 6 -4 11 -10 11 -5 0 -10 9 -10 20 0 26
12 26 30 0 8 -11 20 -20 27 -20 7 0 13 -5 13 -11 0 -24 30 -39 79 -39 28 0 51
5 51 10 0 6 -25 10 -55 10 -32 0 -55 4 -55 11 0 11 -25 39 -35 39 -20 0 -35
34 -35 80 0 46 15 80 35 80 10 0 35 28 35 39 0 7 23 11 55 11 30 0 55 5 55 10
0 6 -23 10 -51 10 -49 0 -79 -15 -79 -39 0 -6 -6 -11 -13 -11 -7 0 -19 -9 -27
-20 -8 -11 -18 -20 -22 -20 -4 0 -8 9 -8 20 0 11 5 20 10 20 6 0 10 5 10 11 0
17 27 39 49 39 12 0 21 5 21 10 0 6 25 10 55 10 30 0 55 -4 55 -10z"/>
<path d="M276 363 c-3 -4 10 -21 29 -39 31 -28 35 -37 35 -84 0 -47 -4 -56
-35 -84 -19 -18 -32 -35 -29 -39 4 -3 26 14 50 38 38 37 44 49 44 85 0 36 -6
48 -44 85 -24 24 -46 41 -50 38z"/>
<path d="M210 330 c0 -5 -5 -10 -11 -10 -16 0 -39 -27 -39 -46 0 -9 12 -27 26
-39 17 -15 25 -29 21 -39 -8 -20 -27 -21 -27 -1 0 8 -4 15 -10 15 -5 0 -10 -5
-10 -11 0 -13 25 -39 38 -39 6 0 12 -5 14 -12 6 -17 58 36 58 59 0 10 -9 25
-20 33 -11 8 -20 25 -20 37 0 28 8 29 26 6 9 -12 13 -13 14 -5 0 12 -43 62
-55 62 -3 0 -5 -4 -5 -10z m-5 -55 c0 -10 -6 -20 -12 -22 -8 -3 -13 5 -13 22
0 17 5 25 13 23 6 -3 12 -13 12 -23z m45 -70 c0 -14 -4 -25 -10 -25 -5 0 -10
11 -10 25 0 14 5 25 10 25 6 0 10 -11 10 -25z"/>
<path d="M20 240 c0 -45 3 -61 13 -57 17 5 17 109 0 115 -10 3 -13 -13 -13
-58z"/>
</g>
</svg>
