
<svg version="1.0" xmlns="http://www.w3.org/2000/svg"
 width="48.000000pt" height="48.000000pt" viewBox="0 0 48.000000 48.000000"
 preserveAspectRatio="xMidYMid meet">

<g transform="translate(0.000000,48.000000) scale(0.100000,-0.100000)"
fill="white" stroke="none">
<path d="M73 395 c-24 -26 -30 -45 -13 -45 6 0 10 -43 10 -110 l0 -110 35 0
c19 0 35 5 35 10 0 13 57 13 65 0 8 -13 62 -13 70 0 8 13 65 13 65 0 0 -5 16
-10 35 -10 l35 0 0 110 c0 67 4 110 10 110 17 0 11 20 -15 45 -33 34 -118 36
-146 3 l-19 -21 -19 21 c-28 33 -117 30 -148 -3z m143 -9 c17 -17 21 -216 4
-216 -5 0 -10 5 -10 10 0 6 -16 10 -35 10 -19 0 -35 -4 -35 -10 0 -5 -11 -10
-25 -10 l-25 0 0 115 0 115 56 0 c35 0 61 -5 70 -14z m174 -101 l0 -115 -25 0
c-14 0 -25 5 -25 10 0 6 -16 10 -35 10 -19 0 -35 -4 -35 -10 0 -5 -4 -10 -10
-10 -15 0 -13 198 3 215 7 9 33 14 70 15 l57 0 0 -115z"/>
<path d="M117 374 c-12 -12 4 -24 33 -24 15 0 30 -6 33 -12 4 -10 7 -10 18 0
11 10 10 12 -4 12 -9 0 -17 7 -17 15 0 15 -50 22 -63 9z"/>
<path d="M115 300 c-4 -6 8 -10 29 -10 20 0 36 5 36 10 0 6 -13 10 -29 10 -17
0 -33 -4 -36 -10z"/>
<path d="M185 279 c-10 -15 3 -25 16 -12 7 7 7 13 1 17 -6 3 -14 1 -17 -5z"/>
<path d="M110 230 c0 -5 16 -10 35 -10 19 0 35 5 35 10 0 6 -16 10 -35 10 -19
0 -35 -4 -35 -10z"/>
<path d="M300 366 c0 -9 -8 -16 -17 -16 -14 0 -14 -3 -5 -12 10 -10 15 -10 20
-1 4 6 21 13 37 15 40 4 38 22 -2 26 -25 2 -33 -1 -33 -12z"/>
<path d="M300 300 c0 -5 16 -10 36 -10 21 0 33 4 29 10 -3 6 -19 10 -36 10
-16 0 -29 -4 -29 -10z"/>
<path d="M276 282 c-3 -6 -1 -14 5 -17 15 -10 25 3 12 16 -7 7 -13 7 -17 1z"/>
<path d="M300 230 c0 -5 16 -10 35 -10 19 0 35 5 35 10 0 6 -16 10 -35 10 -19
0 -35 -4 -35 -10z"/>
<path d="M20 215 c0 -113 2 -135 15 -135 8 0 15 -4 15 -10 0 -5 9 -10 20 -10
11 0 20 5 20 10 0 6 11 10 25 10 14 0 25 4 25 9 0 6 15 11 33 13 17 2 32 8 32
13 0 6 -15 11 -32 13 -25 2 -33 -1 -33 -12 0 -10 -9 -16 -25 -16 -14 0 -25 -4
-25 -10 0 -5 -9 -10 -20 -10 -19 0 -20 7 -20 135 0 113 -2 135 -15 135 -13 0
-15 -22 -15 -135z"/>
<path d="M430 215 c0 -128 -1 -135 -20 -135 -11 0 -20 5 -20 10 0 6 -11 10
-25 10 -16 0 -25 6 -25 16 0 11 -8 14 -32 12 -18 -2 -33 -7 -33 -13 0 -5 15
-11 33 -13 17 -2 32 -7 32 -13 0 -5 11 -9 25 -9 14 0 25 -4 25 -10 0 -5 9 -10
20 -10 11 0 20 5 20 10 0 6 7 10 15 10 13 0 15 22 15 135 0 113 -2 135 -15
135 -13 0 -15 -22 -15 -135z"/>
<path d="M210 90 c0 -5 14 -10 30 -10 17 0 30 5 30 10 0 6 -13 10 -30 10 -16
0 -30 -4 -30 -10z"/>
</g>
</svg>
